<?xml version="1.0" encoding="utf-8"?>
<!-- Generator: Adobe Illustrator 25.4.1, SVG Export Plug-In . SVG Version: 6.00 Build 0)  -->
<svg version="1.1" id="Layer_1" xmlns="http://www.w3.org/2000/svg" xmlns:xlink="http://www.w3.org/1999/xlink" x="0px" y="0px"
	 viewBox="0 0 160 160" style="enable-background:new 0 0 160 160;" xml:space="preserve">
<style type="text/css">
	.st0{fill:#1A1A1A;}
</style>
<g>
	<polygon class="st0" points="18.2,118.9 75,118.9 75.2,118.9 62,105.3 62,64.7 98,64.7 98,105.3 94.6,108.9 94.6,108.9 84.9,118.9 
		85,118.9 84.9,119 84.9,119 84.9,119 142.1,119 142.1,119 142.1,119 142.1,118.9 128.8,105.3 128.8,103.4 128.8,58.8 128.8,26.5 
		128.8,19.4 128.8,13.6 128.8,13.5 142,0 141.9,0 85.1,0 97.8,13.3 98,13.5 98,17.5 98,25 98,38.8 98,39 62,39 62,38.8 62,13.5 
		74.9,0 74.8,0 18.2,0 18,0 31.2,13.5 31.2,91.8 31.2,105.3 17.9,118.9 18,118.9 17.9,119 	"/>
	<polygon class="st0" points="17.7,145.2 10.7,145.2 10.7,136.4 3.7,136.4 3.7,159.5 10.8,159.5 10.8,150.3 17.8,150.3 17.8,159.5 
		24.8,159.5 24.8,136.4 17.7,136.4 	"/>
	<rect x="29.6" y="136.4" class="st0" width="7" height="23.1"/>
	<path class="st0" d="M47.8,142.4c0-1.1,1.2-1.7,3-1.7c2.2,0,3.8,0.6,5.2,2.1l4.2-3.2c-2.2-2.7-5.8-3.7-9.2-3.7
		c-5.9,0-9.9,3-9.9,7.6c0,8.8,13.4,6.1,13.4,9.6c0,1-1.1,2-3.9,2c-2.6,0-4.7-1-6.2-2.8l-4.2,3.1c2.6,3.5,6.5,4.5,10.9,4.5
		c7.2,0,10.5-3.8,10.5-7.7C61.4,142.8,47.8,146.2,47.8,142.4z"/>
	<polygon class="st0" points="149.9,136.4 145,144.2 139.8,136.4 131.8,136.4 140.7,149.8 140.8,159.6 147.8,159.6 147.8,149.2 
		156.3,136.4 	"/>
	<polygon class="st0" points="62.3,141.4 69.1,141.4 69.1,159.5 76.2,159.5 76.2,141.4 83,141.4 83,136.4 62.3,136.4 	"/>
	<path class="st0" d="M132,143c0-3-1.6-6.6-9.8-6.6h-11.8l0.1,23.1h7V150h3.2l3.5,9.5h7.8l-4.6-10.6C130.1,147.8,132,145.9,132,143z
		 M121.1,145.7h-3.6v-4.8h3.9c2.2,0,3.2,1,3.2,2.5C124.6,144.9,123.1,145.7,121.1,145.7z"/>
	<path class="st0" d="M95.6,136c-7.4,0-11.8,4.6-11.8,12c0,7.4,4.5,12,11.8,12c7.4,0,11.8-4.6,11.8-12C107.4,140.6,103,136,95.6,136
		z M95.6,155.4c-2.4,0-4.3-1.2-4.3-7.4c0-5.6,1.5-7.4,4.3-7.4c2.7,0,4.3,1.5,4.3,7.4C99.9,154.2,98,155.4,95.6,155.4z"/>
	<polygon class="st0" points="147.4,124.5 12.7,124.5 6.5,130.9 153.6,130.9 	"/>
</g>
</svg>
