<svg viewBox="0 0 33.94 36" xmlns="http://www.w3.org/2000/svg">
<path d="m16.75 29.64a3.18 3.18 0 1 0 3.25 3.19 3.18 3.18 0 0 0 -3.25-3.19z" fill="#FFF"/>
<path d="m28.74 25.93a3.11 3.11 0 0 0 -4.39.25 3.21 3.21 0 0 0 .21 4.49 3.11 3.11 0 0 0 4.44-.21 3.22 3.22 0 0 0 -.21-4.46z" fill="#FFF"/>
<path d="m9.27 26.12a3.1 3.1 0 0 0 -4.39-.18 3.18 3.18 0 0 0 2.12 5.54 3.09 3.09 0 0 0 2.1-.83 3.21 3.21 0 0 0 .22-4.49z" fill="#FFF"/>
<path d="m6.26 18a3.18 3.18 0 0 0 -3.12-3.23 3.16 3.16 0 0 0 -2.14.96 3.19 3.19 0 0 0 0 4.51 3.12 3.12 0 0 0 2.22.93 3.18 3.18 0 0 0 3.04-3.17z" fill="#FFF"/>
<path d="m26.69 10.87a3.12 3.12 0 0 0 2.11-.82 3.21 3.21 0 0 0 .2-4.49 3.11 3.11 0 0 0 -4.4-.18 3.22 3.22 0 0 0 -.22 4.49 3.13 3.13 0 0 0 2.31 1z" fill="#FFF"/>
<path d="m30.8 21.18a3.09 3.09 0 0 0 2.11-.83 3.22 3.22 0 0 0 .22-4.49 3.11 3.11 0 0 0 -4.39-.18 3.21 3.21 0 0 0 -.22 4.49 3.12 3.12 0 0 0 2.28 1.01z" fill="#FFF"/>
<path d="m9.07 5.29a3.11 3.11 0 0 0 -4.39.26 3.21 3.21 0 0 0 .21 4.45 3.09 3.09 0 0 0 4.43-.22 3.21 3.21 0 0 0 -.21-4.49z" fill="#FFF"/>
<path d="m16.84 0a3.18 3.18 0 0 0 0 6.36 3.16 3.16 0 0 0 2.16-.92 3.18 3.18 0 0 0 0-4.51 3.08 3.08 0 0 0 -2.16-.93z" fill="#FFF"/>
</svg>