<svg viewBox="0 0 859.9 175.44" xmlns="http://www.w3.org/2000/svg">
<path d="m0 113c0-36 26.64-62.4 63.84-62.4s63.84 26.4 63.84 62.4-26.64 62.4-63.84 62.4-63.84-26.4-63.84-62.4zm94.08 0c0-20.16-12.24-33.84-30.24-33.84s-30.24 13.72-30.24 33.84c0 19.92 12.24 33.6 30.24 33.6s30.24-13.6 30.24-33.6z" fill="#FFFFFF"/>
<path d="m138.88 113c0-35.28 25-62.4 62.4-62.4 31.68 0 56.88 19.2 59 47.28h-33.6c-1.92-10.8-12.24-18.72-24.48-18.72-18 0-28.56 14.16-28.56 33.84s10.8 33.6 29 33.6c12.24 0 22.08-7.44 24.48-18.24h34.08c-3.6 26.88-28.56 47-60 47-37.36.08-62.32-27.04-62.32-62.36z" fill="#FFFFFF"/>
<path d="m322.49 16.8v35.76h32.4v27.84h-32.4v45.6c0 11.76 6.24 17.28 17 17.28h15.36v30.24h-19.85c-27.84 0-45.84-15.84-45.84-43.92v-49.2h-23.31v-27.84h23.28v-35.76z" fill="#FFFFFF"/>
<path d="m362.09 113c0-36 26.64-62.4 63.84-62.4s63.84 26.4 63.84 62.4-26.64 62.4-63.84 62.4-63.84-26.4-63.84-62.4zm94.08 0c0-20.16-12.24-33.84-30.24-33.84s-30.24 13.72-30.24 33.84c0 19.92 12.24 33.6 30.24 33.6s30.24-13.6 30.24-33.6z" fill="#FFFFFF"/>
<path d="m536.93 160.32v13.2h-33.36v-173.52h33.36v65.28c6.72-8.88 18.48-14.64 33.6-14.64 35 0 56.64 24.72 56.64 62.4s-21.6 62.4-57.12 62.4c-13.92 0-26.4-5.76-33.12-15.12zm57.12-47.32c0-20.4-11.76-33.84-29.52-33.84s-29.53 13.48-29.53 33.84c0 20.16 11.76 33.6 29.52 33.6s29.53-13.4 29.53-33.6z" fill="#FFFFFF"/>
<path d="m756.54 132.48c-4.8 26.16-27.84 43-57.6 43-41 0-62.16-32.16-62.16-62.64 0-30.72 18.72-62.16 59.76-62.16 42.72 0 59.76 31.44 59.76 59 0 4.56-.24 8.16-.48 10.8h-86.88c2.4 17 13.2 27.6 30 27.6 13.44 0 22.32-5.28 25-15.6zm-87.12-33.12h53.52c-1-13.44-10.32-24.24-26.4-24.24-15.12 0-24.24 7.44-27.12 24.24z" fill="#FFFFFF"/>
<path d="m816 72c0-12 9.6-21.36 21.84-21.36 12.46 0 22.06 9.36 22.06 21.36s-9.6 21.6-22.08 21.6a21.56 21.56 0 0 1 -21.82-21.6z" fill="#FFFFFF"/>
<path d="m772.38 52.56h33.6v120.96h-33.6z" fill="#FFFFFF"/></svg>
