<?xml version="1.0" encoding="utf-8"?>
<!-- Generator: Adobe Illustrator 26.3.1, SVG Export Plug-In . SVG Version: 6.00 Build 0)  -->
<svg version="1.1" id="PRIMARY" xmlns="http://www.w3.org/2000/svg" xmlns:xlink="http://www.w3.org/1999/xlink" x="0px" y="0px"
	 viewBox="0 0 200 200" style="enable-background:new 0 0 200 200;" xml:space="preserve">
<style type="text/css">
	.st0{enable-background:new    ;}
	.st1{fill:#1A1A1A;}
</style>
<g class="st0">
	<path class="st1" d="M68,52.2v84c1.1,0,2.9,0.6,4.6,0.6c12.6,0,14.9-3.4,14.9-10.3c0,0,0-12,0-26.9c0-25.7,0-60.6,0-60.6
		c-1.7-0.6-2.9-0.6-4.6-0.6C69.7,39.1,68,45.9,68,52.2z"/>
	<path class="st1" d="M61.7,116.8v-0.6C61.7,116.2,61.7,116.2,61.7,116.8L61.7,116.8z"/>
	<path class="st1" d="M40.6,92.8l-14.3-2.9c-3.4-0.6-6.3-1.1-6.9-2.9c0-0.6,0-0.6,0-1.1c0-2.3,2.9-4.6,10.3-4.6s13.7,0.6,17.7,0.6
		c5.1,0,10.9-2.3,10.9-12.6c0-1.1,0-2.9-0.6-4l0,0l0,0c-8-1.1-21.7-2.3-33.7-1.1C8.6,66,1.1,75.7,1.1,86.5c0,0.6,0,1.1,0,1.7
		C0,88.8,0,88.8,0,88.8c0,0.6,0,0.6,0,1.1s0,0.6,0,0.6c0,0.6,0,0.6,0,1.1s0,0.6,0.6,1.1v0.6c0.6,0.6,0.6,1.7,1.1,2.3l0,0
		c0,0.6,0.6,0.6,0.6,1.1c0,0,0,0.6,0.6,0.6c0,0.6,0.6,0.6,0.6,1.1L4,99.1l0.6,0.6c0.6,0.6,0.6,0.6,1.1,1.1l0,0l0,0
		c2.9,2.3,6.9,4,11.4,5.1l14.9,2.9c5.7,1.1,8.6,2.3,8.6,5.1c0,2.3-2.3,4.6-9.1,4.6c-6.3,0-14.9-1.1-20.6-1.1
		c-5.1,0-10.9,2.3-10.9,12.6c0,1.1,0,2.9,0.6,4c8,1.1,24.6,2.3,36,1.1C52,133.4,60,124.8,60,113.4c0,0.6,0,1.1,0,1.7
		c0-0.6,0-1.1,0-1.7C61.7,103.7,55.4,95.7,40.6,92.8z"/>
	<path class="st1" d="M200,65.9c-1.7-1.1-5.1-1.7-8-1.7c-0.6,0-0.6,0-1.1,0c-4.6,0-10.9,1.7-14.9,10.9l-12.6,29.7l-0.6-1.1l0,0
		l-24-38.9c-1.7-0.6-5.7-1.1-8.6-1.1c-8.6,0-13.7,3.4-18.3,8.6L88,98.5l19.4,30.3c3.4,5.7,8,8.6,16,8.6c5.1,0,9.1-1.1,10.9-2.3
		l-18.9-28.6l0,0l-4-6.3L128,83.1l26.9,42.3l-16.6,34.3c1.7,0.6,5.1,1.7,9.1,1.7c7.4,0,11.4-2.9,14.3-9.1L186.3,98l0,0L200,65.9z"/>
</g>
</svg>
